<svg width="8" height="6" viewBox="0 0 8 6" fill="none" xmlns="http://www.w3.org/2000/svg">
<path d="M1.00003 0.666663H7.00003C7.06078 0.666853 7.12032 0.683608 7.17225 0.715122C7.22419 0.746636 7.26654 0.791718 7.29476 0.845513C7.32298 0.899309 7.33599 0.959783 7.3324 1.02042C7.3288 1.08106 7.30874 1.13958 7.27436 1.18966L4.27436 5.523C4.15003 5.70266 3.8507 5.70266 3.72603 5.523L0.726028 1.18966C0.691303 1.13968 0.67094 1.08114 0.66715 1.0204C0.663361 0.959655 0.67629 0.899036 0.704533 0.845127C0.732776 0.791217 0.775254 0.746078 0.82735 0.714614C0.879446 0.683151 0.939168 0.666567 1.00003 0.666663Z" fill="#E31B1C"/>
</svg>
