<svg width="20" height="20" viewBox="0 0 20 20" fill="none" xmlns="http://www.w3.org/2000/svg">
<path d="M5.72753 14.2742C4.19003 13.1825 2.97336 11.7625 2.28586 10.8659C2.09362 10.6183 1.98926 10.3138 1.98926 10.0004C1.98926 9.68703 2.09362 9.38254 2.28586 9.13502C3.53003 7.51085 6.51503 4.16669 10 4.16669C11.5634 4.16669 13.025 4.83919 14.275 5.72835" stroke="#6B788E" stroke-width="1.5" stroke-linecap="round" stroke-linejoin="round"/>
<path d="M11.7752 8.23918C11.5437 8.0039 11.268 7.81677 10.9639 7.68858C10.6598 7.56039 10.3333 7.49368 10.0033 7.4923C9.67331 7.49092 9.34629 7.55489 9.04112 7.68053C8.73595 7.80616 8.45868 7.99097 8.22529 8.22431C7.99191 8.45764 7.80703 8.73487 7.68132 9.04C7.55562 9.34514 7.49157 9.67215 7.49287 10.0022C7.49418 10.3322 7.56081 10.6587 7.68893 10.9628C7.81704 11.2669 8.00411 11.5427 8.23933 11.7742M3.3335 16.6667L16.6668 3.33334M8.3335 15.5867C8.8745 15.7477 9.43571 15.8308 10.0002 15.8333C13.4852 15.8333 16.4702 12.4892 17.7143 10.865C17.9065 10.6173 18.0108 10.3126 18.0106 9.99903C18.0105 9.68548 17.9059 9.3809 17.7135 9.13334C17.2762 8.56292 16.8072 8.01761 16.3085 7.50001" stroke="#6B788E" stroke-width="1.5" stroke-linecap="round" stroke-linejoin="round"/>
</svg>
