<svg width="16" height="16" viewBox="0 0 16 16" fill="none" xmlns="http://www.w3.org/2000/svg">
<path d="M1 15H2.098L12.796 4.30202L11.698 3.20402L1 13.902V15ZM0 16V13.48L13.18 0.288015C13.2833 0.196682 13.3967 0.126015 13.52 0.0760154C13.6433 0.0260154 13.7723 0.000681818 13.907 1.51514e-05C14.0417 -0.000651515 14.1717 0.020682 14.297 0.0640153C14.4237 0.106015 14.5403 0.182015 14.647 0.292015L15.714 1.36602C15.824 1.47202 15.8993 1.58868 15.94 1.71602C15.98 1.84268 16 1.96935 16 2.09602C16 2.23202 15.9773 2.36202 15.932 2.48602C15.886 2.60935 15.8133 2.72235 15.714 2.82502L2.519 16H0ZM12.238 3.76202L11.698 3.20402L12.796 4.30202L12.238 3.76202Z" fill="white"/>
</svg>
