<svg width="18" height="22" viewBox="0 0 18 22" fill="none" xmlns="http://www.w3.org/2000/svg">
<path d="M12.0001 18C12.0001 18.7957 11.684 19.5587 11.1214 20.1213C10.5588 20.6839 9.79576 21 9.00011 21C8.20446 21 7.4414 20.6839 6.87879 20.1213C6.31618 19.5587 6.00011 18.7957 6.00011 18M9.72111 4.00302L8.25511 4.00002C4.91111 3.99202 2.00811 6.70902 1.98511 10V13.79C1.98511 14.58 1.88511 15.351 1.45411 16.008L1.16711 16.446C0.73011 17.11 1.20011 18 1.98511 18H16.0151C16.8001 18 17.2691 17.11 16.8331 16.446L16.5461 16.008C16.1161 15.351 16.0151 14.579 16.0151 13.789V10.001C15.9751 6.70902 13.0651 4.01102 9.72111 4.00302V4.00302Z" stroke="white" stroke-width="1.5" stroke-linecap="round" stroke-linejoin="round"/>
<path d="M9 1C9.53043 1 10.0391 1.21071 10.4142 1.58579C10.7893 1.96086 11 2.46957 11 3V4H7V3C7 2.46957 7.21071 1.96086 7.58579 1.58579C7.96086 1.21071 8.46957 1 9 1Z" stroke="white" stroke-width="1.5" stroke-linecap="round" stroke-linejoin="round"/>
</svg>
