<svg width="17" height="17" viewBox="0 0 17 17" fill="none" xmlns="http://www.w3.org/2000/svg">
<path d="M16.7081 2.708C16.8902 2.51939 16.991 2.26679 16.9887 2.0046C16.9865 1.7424 16.8813 1.49159 16.6959 1.30618C16.5105 1.12077 16.2597 1.0156 15.9975 1.01332C15.7353 1.01104 15.4827 1.11184 15.2941 1.294L9.00006 7.586L2.70806 1.294C2.61581 1.19849 2.50547 1.1223 2.38346 1.0699C2.26146 1.01749 2.13024 0.9899 1.99746 0.988746C1.86468 0.987592 1.733 1.01289 1.6101 1.06317C1.48721 1.11346 1.37556 1.18771 1.28166 1.2816C1.18777 1.37549 1.11352 1.48715 1.06324 1.61004C1.01295 1.73294 0.987653 1.86462 0.988807 1.9974C0.989961 2.13018 1.01755 2.2614 1.06996 2.3834C1.12237 2.50541 1.19855 2.61575 1.29406 2.708L7.58606 9L1.29406 15.292C1.10628 15.4795 1.00069 15.7339 1.0005 15.9993C1.00031 16.2647 1.10555 16.5192 1.29306 16.707C1.48057 16.8948 1.73499 17.0004 2.00035 17.0006C2.26571 17.0007 2.52028 16.8955 2.70806 16.708L9.00006 10.414L15.2941 16.708C15.4818 16.8955 15.7364 17.0007 16.0018 17.0006C16.2671 17.0004 16.5216 16.8948 16.7091 16.707C16.8966 16.5192 17.0018 16.2647 17.0016 15.9993C17.0014 15.7339 16.8958 15.4795 16.7081 15.292L10.4161 9L16.7081 2.708Z" fill="white"/>
</svg>
