<svg width="8" height="8" viewBox="0 0 8 8" fill="none" xmlns="http://www.w3.org/2000/svg">
<path d="M1.00003 6.33331H7.00003C7.06078 6.33312 7.12032 6.31636 7.17225 6.28485C7.22419 6.25333 7.26654 6.20825 7.29476 6.15446C7.32298 6.10066 7.33599 6.04019 7.3324 5.97955C7.3288 5.9189 7.30874 5.86039 7.27436 5.81031L4.27436 1.47697C4.15003 1.29731 3.8507 1.29731 3.72603 1.47697L0.726028 5.81031C0.691303 5.86029 0.67094 5.91883 0.66715 5.97957C0.663361 6.04031 0.67629 6.10093 0.704533 6.15484C0.732776 6.20875 0.775254 6.25389 0.82735 6.28536C0.879446 6.31682 0.939168 6.3334 1.00003 6.33331Z" fill="#1ABC9C"/>
</svg>
