<svg width="21" height="21" viewBox="0 0 21 21" fill="none" xmlns="http://www.w3.org/2000/svg">
<path d="M10.5 10.5C11.8261 10.5 13.0979 9.97322 14.0355 9.03553C14.9732 8.09785 15.5 6.82608 15.5 5.5C15.5 4.17392 14.9732 2.90215 14.0355 1.96447C13.0979 1.02678 11.8261 0.5 10.5 0.5C9.17392 0.5 7.90215 1.02678 6.96447 1.96447C6.02678 2.90215 5.5 4.17392 5.5 5.5C5.5 6.82608 6.02678 8.09785 6.96447 9.03553C7.90215 9.97322 9.17392 10.5 10.5 10.5ZM13.8333 5.5C13.8333 6.38405 13.4821 7.2319 12.857 7.85702C12.2319 8.48214 11.3841 8.83333 10.5 8.83333C9.61594 8.83333 8.7681 8.48214 8.14298 7.85702C7.51786 7.2319 7.16667 6.38405 7.16667 5.5C7.16667 4.61594 7.51786 3.7681 8.14298 3.14298C8.7681 2.51786 9.61594 2.16667 10.5 2.16667C11.3841 2.16667 12.2319 2.51786 12.857 3.14298C13.4821 3.7681 13.8333 4.61594 13.8333 5.5ZM20.5 18.8333C20.5 20.5 18.8333 20.5 18.8333 20.5H2.16667C2.16667 20.5 0.5 20.5 0.5 18.8333C0.5 17.1667 2.16667 12.1667 10.5 12.1667C18.8333 12.1667 20.5 17.1667 20.5 18.8333ZM18.8333 18.8267C18.8317 18.4167 18.5767 17.1833 17.4467 16.0533C16.36 14.9667 14.315 13.8333 10.5 13.8333C6.68333 13.8333 4.64 14.9667 3.55333 16.0533C2.42333 17.1833 2.17 18.4167 2.16667 18.8267H18.8333Z" fill="#595959"/>
</svg>
